<?xml version="1.0" encoding="utf-8"?>
<!-- Generator: Adobe Illustrator 25.2.3, SVG Export Plug-In . SVG Version: 6.00 Build 0)  -->
<svg version="1.1" id="Layer_1" xmlns="http://www.w3.org/2000/svg" xmlns:xlink="http://www.w3.org/1999/xlink" x="0px" y="0px"
	 viewBox="0 0 225 225" style="enable-background:new 0 0 225 225;" xml:space="preserve">
<style type="text/css">
	.st0{fill:#255183;}
	.st1{fill:#FFFFFF;}
</style>
<g id="Layer_3">
	<rect x="-1" y="-1" class="st0" width="227" height="227"/>
</g>
<g id="Layer_6">
	<g>
		<path class="st1" d="M60.1,162.3c-1.4,0-2.5,1.1-2.5,2.5l0,0c0,1.4,1.1,2.5,2.5,2.5s2.5-1.1,2.5-2.5S61.5,162.3,60.1,162.3z"/>
		<path class="st1" d="M175.1,47.4h-20.3c-1.4,0-2.5,1.1-2.5,2.5v2.7h-3.4l0,0c-1.4,0-2.5,1.1-2.5,2.5s1.1,2.6,2.5,2.6h3.4v26.4
			c-6.7,4.2-12.7,1.8-19-0.8c-4.2-1.7-8.5-3.4-12.8-2.9c-1.4,0.2-5,0.7-8.9,1.3c-3.7,0.5-7.5,1.1-8.8,1.3c-0.7,0.1-1.3-0.1-1.9-0.5
			s-0.9-1-1-1.7c-0.1-0.4-0.2-1.6,3-3.1c6.7-3.1,13.9-5.8,19.7-7.3c1.4-0.4,2.2-1.8,1.8-3.1c-0.4-1.4-1.8-2.2-3.1-1.8
			c-6.1,1.6-13.6,4.4-20.6,7.6c-2.4,1.1-3.9,2.4-4.8,3.8l-25.5,7c-2.7,0.7-4.1-0.4-4.5-1.6s0.1-2.8,2-3.5c2-0.8,6.8-2.9,12.8-5.5
			c8-3.5,17.9-7.9,25.9-11.1c9.4-3.8,12.3-4.4,21.9-4.4l0,0c1.4,0,2.5-1.1,2.5-2.5s-1.1-2.5-2.5-2.6c-10.3,0-13.9,0.7-23.9,4.7
			c-8,3.2-18,7.6-26,11.2C72.9,71.1,67.9,73.3,66,74l0,0c-4.8,1.9-6.1,6.3-5,9.8c1.1,3.4,4.9,6.4,10.6,5l0,0l23.3-6.3
			c0.4,1.7,1.4,3.1,2.7,4.2c1.6,1.3,3.6,1.8,5.6,1.6c1.4-0.2,5-0.7,8.9-1.3c3.7-0.5,7.5-1.1,8.8-1.3c3-0.4,6.5,1,10.3,2.6
			c4,1.6,8.5,3.4,13.4,3.4c2.4,0,4.9-0.5,7.5-1.6v0.8c0,1.4,1.1,2.5,2.5,2.5h20.3c1.4,0,2.5-1.1,2.5-2.5v-41
			C177.6,48.5,176.5,47.4,175.1,47.4z M172.5,88.1h-15.3V55.2l0,0l0,0v-2.7h15.3V88.1z"/>
		<path class="st1" d="M164.9,62.7c1.4,0,2.5-1.1,2.5-2.5l0,0c0-1.4-1.1-2.5-2.5-2.5s-2.5,1.1-2.5,2.5S163.5,62.7,164.9,62.7z"/>
		<path class="st1" d="M94.7,130.3c6,0,11.4-3,14.6-7.6h9.4c0.7,0,1.3-0.3,1.8-0.7l4.3-4.3h3l4.3,4.3c0.5,0.5,1.1,0.7,1.8,0.7h4
			c0.7,0,1.3-0.3,1.8-0.7l7.6-7.6c0.5-0.5,0.7-1.1,0.7-1.8V105c0-1.4-1.1-2.5-2.5-2.5h-36.3c-3.2-4.6-8.6-7.6-14.6-7.6
			c-9.8,0-17.8,8-17.8,17.8S84.9,130.3,94.7,130.3z M143,107.4v4l-6.1,6.1H135l-4.3-4.3c-0.5-0.5-1.1-0.7-1.8-0.7h-5.1
			c-0.7,0-1.3,0.3-1.8,0.7l-4.3,4.3h-5.9c0.5-1.6,0.7-3.3,0.7-5.1s-0.3-3.5-0.7-5.1L143,107.4L143,107.4z M94.7,99.8
			c7,0,12.7,5.7,12.7,12.7s-5.7,12.7-12.7,12.7S82,119.5,82,112.5S87.7,99.8,94.7,99.8z"/>
		<path class="st1" d="M89.6,115c1.4,0,2.5-1.1,2.5-2.5S91,110,89.6,110s-2.5,1.1-2.5,2.5l0,0C87.1,113.9,88.2,115,89.6,115z"/>
		<path class="st1" d="M138.6,57.6L138.6,57.6c1.4,0,2.5-1.1,2.5-2.5s-1.1-2.5-2.5-2.5s-2.5,1.1-2.5,2.5
			C136,56.5,137.2,57.6,138.6,57.6z"/>
		<path class="st1" d="M153.4,136.4L153.4,136.4l-23.3,6.4c-0.4-1.7-1.4-3.1-2.7-4.2c-1.6-1.3-3.6-1.8-5.6-1.6
			c-1.4,0.2-5,0.7-8.9,1.3c-3.7,0.5-7.5,1.1-8.8,1.3c-3,0.4-6.5-1-10.3-2.6c-5.9-2.4-13.1-5.3-20.9-1.8v-0.8c0-1.4-1.1-2.5-2.5-2.5
			H49.9c-1.4,0-2.5,1.1-2.5,2.5v40.7c0,1.4,1.1,2.5,2.5,2.5h20.3c1.4,0,2.5-1.1,2.5-2.5v-2.7h3.4l0,0c1.4,0,2.5-1.1,2.5-2.5
			s-1.1-2.5-2.5-2.6h-3.4v-26.4c6.7-4.2,12.7-1.8,19,0.8c4.2,1.7,8.5,3.4,12.8,2.9c1.4-0.2,5-0.7,8.9-1.3c3.7-0.5,7.5-1.1,8.8-1.3
			c0.7-0.1,1.3,0.1,1.9,0.5s0.9,1,1,1.7c0.1,0.4,0.2,1.6-3,3.1c-6.7,3.1-13.9,5.8-19.7,7.3c-1.4,0.4-2.2,1.8-1.8,3.1
			c0.4,1.4,1.8,2.2,3.1,1.8c6.1-1.6,13.6-4.4,20.6-7.6c2.4-1.1,3.9-2.4,4.8-3.8l25.5-7c2.7-0.7,4.1,0.4,4.5,1.6
			c0.4,1.2-0.1,2.8-2,3.5c-2,0.8-6.8,2.9-12.8,5.5c-8,3.5-17.9,7.9-25.9,11.1c-9.4,3.8-12.3,4.4-21.9,4.4l0,0
			c-1.4,0-2.5,1.1-2.5,2.5s1.1,2.5,2.5,2.6c0.2,0,0.4,0,0.6,0c9.8,0,13.4-0.8,23.2-4.7c8-3.2,18-7.6,26-11.2
			c5.7-2.5,10.7-4.7,12.6-5.4l0,0c4.8-1.9,6.1-6.3,5-9.8C162.9,138,159.1,135,153.4,136.4z M52.5,172.5v-35.6h15.3v32.9l0,0v2.7
			L52.5,172.5L52.5,172.5z"/>
		<path class="st1" d="M86.4,167.4L86.4,167.4c-1.4,0-2.5,1.1-2.5,2.5s1.1,2.5,2.5,2.5s2.5-1.1,2.5-2.5
			C89,168.5,87.8,167.4,86.4,167.4z"/>
	</g>
</g>
</svg>
