<?xml version="1.0" encoding="utf-8"?>
<!-- Generator: Adobe Illustrator 25.2.3, SVG Export Plug-In . SVG Version: 6.00 Build 0)  -->
<svg version="1.1" id="Layer_1" xmlns="http://www.w3.org/2000/svg" xmlns:xlink="http://www.w3.org/1999/xlink" x="0px" y="0px"
	 viewBox="0 0 225 225" style="enable-background:new 0 0 225 225;" xml:space="preserve">
<style type="text/css">
	.st0{fill:#FFC107;}
	.st1{display:none;}
	.st2{display:inline;}
	.st3{fill:#FFFFFF;}
	.st4{fill:none;stroke:#FFFFFF;stroke-width:5;stroke-linecap:round;stroke-linejoin:round;stroke-miterlimit:10;}
</style>
<g id="Layer_3">
	<rect x="-1" y="-1" class="st0" width="227" height="227"/>
</g>
<g id="Layer_4" class="st1">
	<g id="L8F0Zg_1_" class="st2">
		<g>
			<path class="st3" d="M93.2,59c0-2.3,0-4.4,0-6.5c0-2,0.9-2.9,2.9-2.9c3.2,0,6.4,0,9.8,0c0.2-4.4,1.8-8.1,5.3-10.7
				c2.6-2,5.5-2.8,8.8-2.8c6.7,0.2,11.1,4.8,12.9,13.5c2.4,0,4.9,0,7.3,0c0.8,0,1.7,0,2.5,0c1.7,0,2.7,1,2.7,2.7c0,2.2,0,4.3,0,6.7
				c0.7,0,1.2,0,1.7,0c6.3,0,12.6,0,19,0c2,0,2.9,0.9,2.9,2.9c0,0.6,0,1.3,0,1.9c0,30.6,0,61.2,0,91.8c0,1.2-0.3,2.1-1.3,2.9
				c-8,7.1-15.9,14.4-23.9,21.5c-0.4,0.4-1.2,0.6-1.8,0.6c-10.7,0-21.5,0-32.2,0.1c-0.7,0-1.5,0.3-2,0.7
				c-18.6,15.3-46.4,5.6-51-18.1c-2.4-12.6,1.9-23,11.9-31c0.7-0.6,1-1.1,1-2c0-22.6,0-45.2,0-67.8c0-0.7,0-1.5,0.2-2.1
				c0.5-1.2,1.5-1.5,2.7-1.5c6.4,0,12.7,0,19.1,0C92.1,59,92.5,59,93.2,59z M74.6,128.7c13.1-5,25.2-3.4,35,6.7
				c11.7,12.1,12.1,25.9,3.8,40.2c9.9,0,19.7,0,29.7,0c0-6.1,0-12.1,0-18.2c7,0,13.8,0,20.7,0c0-0.4,0.1-0.7,0.1-1
				c0-30.4,0-60.8,0-91.2c0-1-0.3-1.2-1.2-1.2c-5.4,0-10.8,0-16.2,0c-0.4,0-0.7,0.1-1.2,0.1c0,1.6,0,3.2,0,4.7
				c0,2.2-0.8,3.1-3.1,3.1c-15.3,0-30.7,0-46,0c-2.2,0-3.1-0.9-3.1-3.1c0-1.5,0-3.1,0-4.7c-6.3,0-12.4,0-18.5,0
				C74.6,85.6,74.6,107.1,74.6,128.7z M113.9,157.5c0.2-14.2-11.6-26.3-25.8-26.5c-14.7-0.2-26.8,11.3-27,25.8
				c-0.2,14.7,11.4,26.7,25.9,26.9C101.8,184,113.7,172.4,113.9,157.5z M140.2,54.7c-3.3,0-6.5,0-9.6,0c-2.7,0-3.6-1.1-3.1-3.7
				c0.6-3.3-0.8-6.7-3.7-8.4c-3-1.9-6.1-1.8-9.1,0.1c-2.9,1.9-4.2,5.2-3.5,8.6c0.4,2.1-0.6,3.4-2.7,3.4c-2.9,0-5.8,0-8.8,0
				c-0.4,0-0.9,0-1.3,0.1c0,4.1,0,8.1,0,12c14,0,27.9,0,41.9,0C140.2,62.7,140.2,58.8,140.2,54.7z"/>
			<path class="st3" d="M119.1,86.3c-9.6,0-19.2,0-28.7,0c-0.5,0-1,0-1.5-0.1c-1.1-0.3-1.8-1.1-1.8-2.3c-0.1-1.2,0.7-2.1,1.8-2.5
				c0.4-0.1,0.9-0.1,1.4-0.1c19.4,0,38.7,0,58.1,0c0.2,0,0.3,0,0.5,0c1.6,0.1,2.6,1.1,2.6,2.5c0,1.5-1,2.5-2.6,2.5
				c-2.4,0-4.7,0-7.1,0C134.2,86.3,126.6,86.3,119.1,86.3z"/>
			<path class="st3" d="M119.2,112.5c9.8,0,19.6,0,29.3,0c1.7,0,2.7,0.8,2.9,2.2c0.1,1.5-1,2.8-2.5,2.8c-12.2,0-24.4,0-36.6,0
				c-7,0-14,0-21,0c-0.8,0-1.5,0-2.3-0.1c-1.4-0.2-2.2-1.4-2.1-2.6c0.1-1.4,1.1-2.2,2.5-2.2c8.2,0,16.4,0,24.6,0
				C115.9,112.5,117.5,112.5,119.2,112.5z"/>
			<path class="st3" d="M119.4,97.4c9.7,0,19.5,0,29.2,0c1.8,0,2.9,0.9,2.8,2.5c0,1.3-0.9,2.3-2.3,2.4c-0.4,0-0.8,0-1.1,0
				c-19.2,0-38.5,0-57.7,0c-0.4,0-0.8,0-1.1,0c-1.3-0.1-2.1-1.1-2.2-2.4c0-1.3,0.8-2.3,2.1-2.5c0.4-0.1,0.8,0,1.1,0
				C100,97.4,109.7,97.4,119.4,97.4z"/>
			<path class="st3" d="M136.1,128.5c4.1,0,8.2,0,12.3,0c1.9,0,2.9,0.9,3,2.4c0,1.6-1.1,2.6-2.9,2.6c-8.3,0-16.6,0-24.9,0
				c-1.7,0-2.9-1-2.9-2.6c0-1.5,1.2-2.5,2.9-2.5C127.8,128.5,132,128.5,136.1,128.5z"/>
			<path class="st3" d="M137.8,143c3.6,0,7.2,0,10.8,0c1.8,0,2.9,0.9,2.9,2.5c0,1.5-1.1,2.5-2.9,2.5c-7.2,0-14.5,0-21.7,0
				c-1.7,0-2.7-1-2.7-2.5s1-2.5,2.7-2.5C130.5,143,134.1,143,137.8,143z"/>
			<path class="st3" d="M85.8,163.8c3.3-3.1,6.5-6.2,9.7-9.3c1.7-1.7,3.5-3.4,5.2-5c1.3-1.2,2.8-1.3,3.8-0.2s0.9,2.6-0.4,3.8
				c-5.4,5.2-10.8,10.4-16.2,15.6c-1.4,1.3-2.5,1.4-3.8,0.3c-3.9-3.1-7.8-6.2-11.7-9.4c-0.9-0.7-1.3-1.6-1-2.7c0.3-1.1,1-1.8,2-1.8
				c0.8,0,1.7,0.4,2.4,0.9c3.1,2.4,6.1,4.8,9.2,7.3C85.2,163.4,85.4,163.5,85.8,163.8z"/>
			<path class="st3" d="M115.5,48.7c0-2.1,1.7-3.7,3.8-3.7c2.1,0,3.7,1.7,3.7,3.8s-1.7,3.8-3.8,3.7
				C117.1,52.6,115.4,50.9,115.5,48.7z"/>
		</g>
	</g>
</g>
<g id="Layer_5" class="st1">
	<g class="st2">
		<g>
			<path class="st3" d="M177.2,146.5c-0.1-0.2-0.1-0.3-0.2-0.5c-1.4-3.8-5.1-6.4-9.2-6.4c-1.1,0-2.2,0.2-3.3,0.6
				c-2.2,0.8-5.2,1.9-8.7,3v-41.3l1.8,1.7c1,0.9,2.5,0.9,3.5,0l8.1-7.5c0.5-0.5,0.8-1.2,0.8-1.9c0-0.7-0.3-1.4-0.8-1.9l-47.4-44.1
				c-1-0.9-2.5-0.9-3.5,0l-47.4,44c-0.5,0.5-0.8,1.2-0.8,1.9c0,0.7,0.3,1.4,0.8,1.9l8.1,7.5c0.5,0.5,1.1,0.7,1.7,0.7
				s1.2-0.2,1.7-0.7l1.8-1.7v28.7c-2.9,2.7-6.8,3.4-12,3.4v-5.4c0-1.4-1.1-2.5-2.5-2.5H50c-1.4,0-2.5,1.1-2.5,2.5V175
				c0,1.4,1.1,2.5,2.5,2.5h19.8c1.4,0,2.5-1.1,2.5-2.5v-8.1h8.4c5.4,0,11,2.4,16.3,4.7c5.2,2.3,10.2,4.4,15,4.4h0.1
				c6.9-0.3,22.8-2.7,52.3-14.7c2.3-1,4.8-2,7.1-3l0,0C176.3,156.3,178.6,151.3,177.2,146.5z M67.2,136.5L67.2,136.5v27.9v8.1h-4.8
				v-26.4c0-1.4-1.1-2.5-2.5-2.5s-2.5,1.1-2.5,2.5v26.4h-4.8v-41.4h14.7C67.2,131.1,67.2,136.5,67.2,136.5z M80.8,98.2l-4.4-4.1
				l43.7-40.7l43.7,40.7l-4.4,4.1l-37.5-35c-1-0.9-2.5-0.9-3.5,0L80.8,98.2z M134.9,127.8C134.8,127.7,134.8,127.7,134.9,127.8
				l-32.4-3.3l0,0c-0.3,0-0.5-0.1-0.8-0.1c-0.1,0-0.1,0-0.2,0c-0.2,0-0.5,0-0.7,0h-0.1c-4-0.2-7.9,0.7-11.4,2.5v-4.6h45.4
				c1.4,0,2.5-1.1,2.5-2.5s-1.1-2.5-2.5-2.5H89.4v-20l30.7-28.6l30.7,28.6V145c-8.8,2.7-20.2,5.7-28.6,6h-0.1c-0.2,0-0.4,0-0.7,0
				c-0.1,0-0.1,0-0.2,0c-0.3,0-0.5,0-0.7,0c-3.3,0-4.6-2.5-5.1-4.7c3,0,5.5,0,7.5,0c2.5,0,4.2,0,5.2,0c0.1,0,0.1,0,0.2,0
				c0.1,0,0.1,0,0.2,0c0.3,0,0.5,0,0.6,0l0,0c4.2,0,8.1-2.1,10.4-5.4c0.2-0.2,0.3-0.5,0.4-0.7c0-0.1,0.1-0.2,0.1-0.3
				c0.9-1.7,1.4-3.7,1.4-5.7C141.5,132,140.6,128.5,134.9,127.8z M169.7,153.6c-1,0.4-2,0.8-2.9,1.2l-1.8-3.2
				c-0.7-1.2-2.2-1.6-3.5-1c-1.2,0.7-1.6,2.2-1,3.5l1.5,2.6c-28.4,11.5-43.5,13.8-50,14.1c-3.8,0-8.3-1.9-13-4
				c-5.5-2.4-11.8-5.1-18.3-5.1h-8.4V139c5.3-0.1,11.1-0.7,15.6-5c0.2-0.2,0.4-0.4,0.6-0.6c0.1-0.1,0.2-0.2,0.3-0.3
				c0.1-0.1,0.3-0.2,0.4-0.3s0.3-0.2,0.4-0.3s0.2-0.2,0.3-0.2c0.2-0.1,0.3-0.2,0.5-0.3c0.1,0,0.2-0.1,0.2-0.1
				c0.2-0.1,0.4-0.2,0.6-0.4l0.1-0.1c0.2-0.1,0.5-0.2,0.7-0.4c0,0,0,0,0.1,0c1.9-0.9,3.9-1.5,6-1.6l0,0c0.3,0,0.6,0,0.9-0.1h0.1
				c0.3,0,0.5,0,0.8,0c0.1,0,0.2,0,0.3,0c0.2,0,0.4,0,0.6,0c0.3,0,0.6,0.1,0.9,0.1c0,0,0,0,0.1,0l21.7,2.2v4.1
				c0,1.4,1.1,2.5,2.5,2.5s2.5-1.1,2.5-2.5v-3.6l5.6,0.6c0.4,0.1,0.7,0.1,1,0.2c1.1,0.3,1.1,0.6,1.1,1c0,1.2-0.3,2.4-0.9,3.4
				c-0.1,0.1-0.2,0.3-0.2,0.4c-0.2,0.3-0.4,0.5-0.6,0.7c-0.1,0.1-0.2,0.2-0.3,0.3c-1.3,1.3-3.2,2.1-5.3,2.1c-0.1,0-0.3,0-0.5,0
				c-0.1,0-0.1,0-0.2,0c-0.1,0-0.1,0-0.2,0c-1.2,0-3.5,0-7.1,0c-2.3,0-5.1,0-8.5,0l0,0c-0.7,0-1.3,0.3-1.8,0.8s-0.7,1.1-0.7,1.8
				c0.1,7.5,4.2,12.3,10.5,12.3c0.3,0,0.6,0,0.8,0c0.1,0,0.1,0,0.2,0c0.2,0,0.5,0,0.7,0h0.1c14.1-0.6,35.2-7.8,43.9-10.9
				c0.5-0.2,1-0.3,1.6-0.3c2,0,3.7,1.2,4.4,3.1c0,0.1,0.1,0.2,0.1,0.2C173,150.3,171.9,152.7,169.7,153.6z"/>
		</g>
	</g>
</g>
<g id="Layer_6" class="st1">
	<g class="st2">
		<path class="st3" d="M60.1,162.3c-1.4,0-2.5,1.1-2.5,2.5l0,0c0,1.4,1.1,2.5,2.5,2.5s2.5-1.1,2.5-2.5S61.5,162.3,60.1,162.3z"/>
		<path class="st3" d="M175.1,47.4h-20.3c-1.4,0-2.5,1.1-2.5,2.5v2.7h-3.4l0,0c-1.4,0-2.5,1.1-2.5,2.5s1.1,2.6,2.5,2.6h3.4v26.4
			c-6.7,4.2-12.7,1.8-19-0.8c-4.2-1.7-8.5-3.4-12.8-2.9c-1.4,0.2-5,0.7-8.9,1.3c-3.7,0.5-7.5,1.1-8.8,1.3c-0.7,0.1-1.3-0.1-1.9-0.5
			s-0.9-1-1-1.7c-0.1-0.4-0.2-1.6,3-3.1c6.7-3.1,13.9-5.8,19.7-7.3c1.4-0.4,2.2-1.8,1.8-3.1c-0.4-1.4-1.8-2.2-3.1-1.8
			c-6.1,1.6-13.6,4.4-20.6,7.6c-2.4,1.1-3.9,2.4-4.8,3.8l-25.5,7c-2.7,0.7-4.1-0.4-4.5-1.6s0.1-2.8,2-3.5c2-0.8,6.8-2.9,12.8-5.5
			c8-3.5,17.9-7.9,25.9-11.1c9.4-3.8,12.3-4.4,21.9-4.4l0,0c1.4,0,2.5-1.1,2.5-2.5s-1.1-2.5-2.5-2.6c-10.3,0-13.9,0.7-23.9,4.7
			c-8,3.2-18,7.6-26,11.2C72.9,71.1,67.9,73.3,66,74l0,0c-4.8,1.9-6.1,6.3-5,9.8c1.1,3.4,4.9,6.4,10.6,5l0,0l23.3-6.3
			c0.4,1.7,1.4,3.1,2.7,4.2c1.6,1.3,3.6,1.8,5.6,1.6c1.4-0.2,5-0.7,8.9-1.3c3.7-0.5,7.5-1.1,8.8-1.3c3-0.4,6.5,1,10.3,2.6
			c4,1.6,8.5,3.4,13.4,3.4c2.4,0,4.9-0.5,7.5-1.6v0.8c0,1.4,1.1,2.5,2.5,2.5h20.3c1.4,0,2.5-1.1,2.5-2.5v-41
			C177.6,48.5,176.5,47.4,175.1,47.4z M172.5,88.1h-15.3V55.2l0,0l0,0v-2.7h15.3V88.1z"/>
		<path class="st3" d="M164.9,62.7c1.4,0,2.5-1.1,2.5-2.5l0,0c0-1.4-1.1-2.5-2.5-2.5s-2.5,1.1-2.5,2.5S163.5,62.7,164.9,62.7z"/>
		<path class="st3" d="M94.7,130.3c6,0,11.4-3,14.6-7.6h9.4c0.7,0,1.3-0.3,1.8-0.7l4.3-4.3h3l4.3,4.3c0.5,0.5,1.1,0.7,1.8,0.7h4
			c0.7,0,1.3-0.3,1.8-0.7l7.6-7.6c0.5-0.5,0.7-1.1,0.7-1.8V105c0-1.4-1.1-2.5-2.5-2.5h-36.3c-3.2-4.6-8.6-7.6-14.6-7.6
			c-9.8,0-17.8,8-17.8,17.8S84.9,130.3,94.7,130.3z M143,107.4v4l-6.1,6.1H135l-4.3-4.3c-0.5-0.5-1.1-0.7-1.8-0.7h-5.1
			c-0.7,0-1.3,0.3-1.8,0.7l-4.3,4.3h-5.9c0.5-1.6,0.7-3.3,0.7-5.1s-0.3-3.5-0.7-5.1L143,107.4L143,107.4z M94.7,99.8
			c7,0,12.7,5.7,12.7,12.7s-5.7,12.7-12.7,12.7S82,119.5,82,112.5S87.7,99.8,94.7,99.8z"/>
		<path class="st3" d="M89.6,115c1.4,0,2.5-1.1,2.5-2.5S91,110,89.6,110s-2.5,1.1-2.5,2.5l0,0C87.1,113.9,88.2,115,89.6,115z"/>
		<path class="st3" d="M138.6,57.6L138.6,57.6c1.4,0,2.5-1.1,2.5-2.5s-1.1-2.5-2.5-2.5s-2.5,1.1-2.5,2.5
			C136,56.5,137.2,57.6,138.6,57.6z"/>
		<path class="st3" d="M153.4,136.4L153.4,136.4l-23.3,6.4c-0.4-1.7-1.4-3.1-2.7-4.2c-1.6-1.3-3.6-1.8-5.6-1.6
			c-1.4,0.2-5,0.7-8.9,1.3c-3.7,0.5-7.5,1.1-8.8,1.3c-3,0.4-6.5-1-10.3-2.6c-5.9-2.4-13.1-5.3-20.9-1.8v-0.8c0-1.4-1.1-2.5-2.5-2.5
			H49.9c-1.4,0-2.5,1.1-2.5,2.5v40.7c0,1.4,1.1,2.5,2.5,2.5h20.3c1.4,0,2.5-1.1,2.5-2.5v-2.7h3.4l0,0c1.4,0,2.5-1.1,2.5-2.5
			s-1.1-2.5-2.5-2.6h-3.4v-26.4c6.7-4.2,12.7-1.8,19,0.8c4.2,1.7,8.5,3.4,12.8,2.9c1.4-0.2,5-0.7,8.9-1.3c3.7-0.5,7.5-1.1,8.8-1.3
			c0.7-0.1,1.3,0.1,1.9,0.5s0.9,1,1,1.7c0.1,0.4,0.2,1.6-3,3.1c-6.7,3.1-13.9,5.8-19.7,7.3c-1.4,0.4-2.2,1.8-1.8,3.1
			c0.4,1.4,1.8,2.2,3.1,1.8c6.1-1.6,13.6-4.4,20.6-7.6c2.4-1.1,3.9-2.4,4.8-3.8l25.5-7c2.7-0.7,4.1,0.4,4.5,1.6
			c0.4,1.2-0.1,2.8-2,3.5c-2,0.8-6.8,2.9-12.8,5.5c-8,3.5-17.9,7.9-25.9,11.1c-9.4,3.8-12.3,4.4-21.9,4.4l0,0
			c-1.4,0-2.5,1.1-2.5,2.5s1.1,2.5,2.5,2.6c0.2,0,0.4,0,0.6,0c9.8,0,13.4-0.8,23.2-4.7c8-3.2,18-7.6,26-11.2
			c5.7-2.5,10.7-4.7,12.6-5.4l0,0c4.8-1.9,6.1-6.3,5-9.8C162.9,138,159.1,135,153.4,136.4z M52.5,172.5v-35.6h15.3v32.9l0,0v2.7
			L52.5,172.5L52.5,172.5z"/>
		<path class="st3" d="M86.4,167.4L86.4,167.4c-1.4,0-2.5,1.1-2.5,2.5s1.1,2.5,2.5,2.5s2.5-1.1,2.5-2.5
			C89,168.5,87.8,167.4,86.4,167.4z"/>
	</g>
</g>
<g id="Layer_1_1_">
	<g id="WK486f_1_">
		<g>
			<g>
				<path class="st3" d="M107.5,47L107.5,47L107.5,47 M112.1,47.8c1.7,0,3.4,0,5.2,0.1c-0.5,3.3-1.1,6.7-1.7,10
					c-0.3,1.5-0.5,2.9-0.8,4.4c-0.8,4.4,1.6,8.2,5.8,9.1c0.5,0.1,1.1,0.2,1.6,0.2c3.7,0,6.6-2.6,7.3-6.5c0.5-2.5,0.9-5,1.4-7.5
					c6.1,5.3,9.2,12.1,9.6,21c0.1,2.2,1.6,4,3.5,4.6h-41.4H81c2-0.7,3.4-2.5,3.4-4.7c0.1-7.2,2.4-13.2,7-18.5
					c0.8-0.9,1.6-1.7,2.5-2.5l1.1,6.4v0.2c0.1,0.4,0.2,0.9,0.3,1.4c0.9,3.7,3.8,6,7.3,6c0.6,0,1.1-0.1,1.7-0.2
					c4-0.9,6.5-4.7,5.7-8.9l-0.3-1.9c-0.7-4.1-1.4-8.4-2.2-12.6C109.1,47.8,110.6,47.8,112.1,47.8 M112.1,42.8c-1.8,0-3.6,0-5.3,0.2
					c-3.3,0.2-4.6,2.3-4.1,5.5c0.9,4.9,1.7,9.9,2.6,14.8c0.3,1.6-0.5,2.8-1.9,3.2c-0.2,0-0.4,0.1-0.6,0.1c-1.1,0-2.1-0.8-2.4-2.2
					c-0.1-0.4-0.2-0.9-0.3-1.3c-0.8-4.6-1.6-9.2-2.5-14c-3.9,2-7.1,4.5-9.9,7.6c-5.4,6.2-8.1,13.4-8.2,21.7c-0.5,0-0.9,0-1.2,0.1
					c-2.9,0.1-5,2.1-5,4.8c0,2.7,2.1,4.7,5,4.9c0.1,0,0.3,0,0.4,0c0.2,0,0.4,0,0.6,0c7.8,0,15.6,0,23.3,0c14.3,0,28.6,0,42.9,0l0,0
					c0.2,0,0.5,0,0.7,0c0.3,0,0.5,0,0.8,0c2.6-0.3,4.6-2.5,4.5-5c-0.1-2.6-2.1-4.5-4.8-4.7c-0.4,0-0.9-0.1-1.3-0.1
					c-0.6-13.1-6.6-22.8-18.1-29.3c-0.9,5.3-1.8,10.2-2.7,15.2c-0.3,1.6-1.2,2.4-2.4,2.4c-0.2,0-0.4,0-0.6-0.1
					c-1.5-0.3-2.2-1.5-1.9-3.3c0.9-5.4,1.9-10.7,2.7-16.1c0.1-0.7-0.2-1.8-0.8-2.3c-1-0.8-2.3-1.7-3.5-1.8
					C116.2,42.9,114.1,42.8,112.1,42.8L112.1,42.8z"/>
			</g>
			<path class="st4" d="M84.8,137c0.5-0.1,0.8,0,1.1-0.1c1.4-0.5,2.1,0,2.9,1.3c1.6,2.4,4.1,3.8,6.7,4.8c6.8,2.8,13.9,3.5,21.2,2.8
				c3.7-0.4,7.5-1.1,11.1-2.2c3.7-1.1,7.1-2.9,9.2-6.5c0.1-0.3,0.7-0.4,1.1-0.4c0.7,0,1.4,0.2,2.2,0.3c0,9.2,0,18.3,0,27.5
				c-18.5,0-36.9,0-55.4,0C84.8,155.4,84.8,146.3,84.8,137z"/>
			<path class="st3" d="M77,94.1c2,0,3.9,0,5.9,0c0,1.4,0,2.8,0,4.2c-0.1,2.4,0.5,4.6,1.9,6.4c0.6,0.8,1.6,1.2,2.6,1.5
				c2,5.2,4.6,10.2,8.3,14.6c3.4,4.1,7.5,7.4,12.8,8.6c6.4,1.4,11.7-1.1,16.4-5.2c5.1-4.6,8.5-10.3,10.9-16.7
				c0.2-0.5,0.3-0.9,0.5-1.5c1.6,0.4,2.5-0.6,3.1-1.8c1.7-3.1,2.1-6.5,1.5-10.1c1.9,0,3.8,0,5.9,0c-0.5,5.3-0.7,10.4-5.2,14.2
				c-1.1,0.9-1.5,2.7-2.1,4.1c-3.3,7.4-7.8,13.9-14.4,18.7c-9.1,6.6-19,6.2-27.8-1c-6.6-5.4-11.2-12.3-14.2-20.3
				c-0.3-0.7-1.1-1.3-1.6-2c-1.1-1.6-2.5-3.2-3.3-4.9C77.2,100.2,76.8,97.3,77,94.1z"/>
			<path class="st4" d="M62.9,180.7c-6.7-0.8-12.5-6.4-13.1-12.5c-0.1-1.2-0.1-2.5,0.2-3.6c1.9-7,4.6-13.7,9.6-19.2
				c2.6-2.9,5.7-5.1,9.5-6.3c0.3-0.1,0.5-0.1,1.1-0.2c0,0.6,0,1.2,0,1.7c0,7.8,0,15.6,0,23.4c0,1.1-0.3,1.8-1.3,2.4
				c-3.9,2.3-5.9,5.8-5.9,10.4C62.9,178.1,62.9,179.4,62.9,180.7z"/>
			<path class="st4" d="M155,138.9c3.1,0.7,5.6,2.2,7.9,4.2c5.7,4.9,8.8,11.4,11.1,18.3c0.9,2.7,1.7,5.4,1,8.2
				c-0.4,1.5-0.8,3.1-1.7,4.3c-2.7,3.8-6.8,5.5-11.3,7.2c0-1.6,0-2.9,0-4.2c0-4.7-2.2-8.2-6.1-10.6c-0.5-0.3-1-1.1-1-1.6
				c-0.1-8.3,0-16.5,0-24.8C154.9,139.5,155,139.3,155,138.9z"/>
			<path class="st3" d="M147.6,182.2c-3.4,0-6-2.6-6-6.1c0-3.3,2.7-5.9,6-5.9s6.1,2.8,6,6.1S150.9,182.2,147.6,182.2z"/>
			<path class="st3" d="M82.4,176.3c0,3.3-2.6,5.9-5.9,5.9c-3.4,0-6.1-2.7-6.1-6c0-3.2,2.8-6,6-6C79.7,170.2,82.4,172.9,82.4,176.3z
				"/>
		</g>
	</g>
</g>
</svg>
