<?xml version="1.0" encoding="utf-8"?>
<!-- Generator: Adobe Illustrator 25.2.3, SVG Export Plug-In . SVG Version: 6.00 Build 0)  -->
<svg version="1.1" id="Layer_1" xmlns="http://www.w3.org/2000/svg" xmlns:xlink="http://www.w3.org/1999/xlink" x="0px" y="0px"
	 viewBox="0 0 225 225" style="enable-background:new 0 0 225 225;" xml:space="preserve">
<style type="text/css">
	.st0{fill:#FFCC68;}
	.st1{fill:#FFFFFF;}
</style>
<g id="Layer_3">
	<rect x="-1" y="-1" class="st0" width="227" height="227"/>
</g>
<g id="Layer_4">
	<g id="L8F0Zg_1_">
		<g>
			<path class="st1" d="M93.2,59c0-2.3,0-4.4,0-6.5c0-2,0.9-2.9,2.9-2.9c3.2,0,6.4,0,9.8,0c0.2-4.4,1.8-8.1,5.3-10.7
				c2.6-2,5.5-2.8,8.8-2.8c6.7,0.2,11.1,4.8,12.9,13.5c2.4,0,4.9,0,7.3,0c0.8,0,1.7,0,2.5,0c1.7,0,2.7,1,2.7,2.7c0,2.2,0,4.3,0,6.7
				c0.7,0,1.2,0,1.7,0c6.3,0,12.6,0,19,0c2,0,2.9,0.9,2.9,2.9c0,0.6,0,1.3,0,1.9c0,30.6,0,61.2,0,91.8c0,1.2-0.3,2.1-1.3,2.9
				c-8,7.1-15.9,14.4-23.9,21.5c-0.4,0.4-1.2,0.6-1.8,0.6c-10.7,0-21.5,0-32.2,0.1c-0.7,0-1.5,0.3-2,0.7
				c-18.6,15.3-46.4,5.6-51-18.1c-2.4-12.6,1.9-23,11.9-31c0.7-0.6,1-1.1,1-2c0-22.6,0-45.2,0-67.8c0-0.7,0-1.5,0.2-2.1
				c0.5-1.2,1.5-1.5,2.7-1.5c6.4,0,12.7,0,19.1,0C92.1,59,92.5,59,93.2,59z M74.6,128.7c13.1-5,25.2-3.4,35,6.7
				c11.7,12.1,12.1,25.9,3.8,40.2c9.9,0,19.7,0,29.7,0c0-6.1,0-12.1,0-18.2c7,0,13.8,0,20.7,0c0-0.4,0.1-0.7,0.1-1
				c0-30.4,0-60.8,0-91.2c0-1-0.3-1.2-1.2-1.2c-5.4,0-10.8,0-16.2,0c-0.4,0-0.7,0.1-1.2,0.1c0,1.6,0,3.2,0,4.7
				c0,2.2-0.8,3.1-3.1,3.1c-15.3,0-30.7,0-46,0c-2.2,0-3.1-0.9-3.1-3.1c0-1.5,0-3.1,0-4.7c-6.3,0-12.4,0-18.5,0
				C74.6,85.6,74.6,107.1,74.6,128.7z M113.9,157.5c0.2-14.2-11.6-26.3-25.8-26.5c-14.7-0.2-26.8,11.3-27,25.8
				c-0.2,14.7,11.4,26.7,25.9,26.9C101.8,184,113.7,172.4,113.9,157.5z M140.2,54.7c-3.3,0-6.5,0-9.6,0c-2.7,0-3.6-1.1-3.1-3.7
				c0.6-3.3-0.8-6.7-3.7-8.4c-3-1.9-6.1-1.8-9.1,0.1c-2.9,1.9-4.2,5.2-3.5,8.6c0.4,2.1-0.6,3.4-2.7,3.4c-2.9,0-5.8,0-8.8,0
				c-0.4,0-0.9,0-1.3,0.1c0,4.1,0,8.1,0,12c14,0,27.9,0,41.9,0C140.2,62.7,140.2,58.8,140.2,54.7z"/>
			<path class="st1" d="M119.1,86.3c-9.6,0-19.2,0-28.7,0c-0.5,0-1,0-1.5-0.1c-1.1-0.3-1.8-1.1-1.8-2.3c-0.1-1.2,0.7-2.1,1.8-2.5
				c0.4-0.1,0.9-0.1,1.4-0.1c19.4,0,38.7,0,58.1,0c0.2,0,0.3,0,0.5,0c1.6,0.1,2.6,1.1,2.6,2.5c0,1.5-1,2.5-2.6,2.5
				c-2.4,0-4.7,0-7.1,0C134.2,86.3,126.6,86.3,119.1,86.3z"/>
			<path class="st1" d="M119.2,112.5c9.8,0,19.6,0,29.3,0c1.7,0,2.7,0.8,2.9,2.2c0.1,1.5-1,2.8-2.5,2.8c-12.2,0-24.4,0-36.6,0
				c-7,0-14,0-21,0c-0.8,0-1.5,0-2.3-0.1c-1.4-0.2-2.2-1.4-2.1-2.6c0.1-1.4,1.1-2.2,2.5-2.2c8.2,0,16.4,0,24.6,0
				C115.9,112.5,117.5,112.5,119.2,112.5z"/>
			<path class="st1" d="M119.4,97.4c9.7,0,19.5,0,29.2,0c1.8,0,2.9,0.9,2.8,2.5c0,1.3-0.9,2.3-2.3,2.4c-0.4,0-0.8,0-1.1,0
				c-19.2,0-38.5,0-57.7,0c-0.4,0-0.8,0-1.1,0c-1.3-0.1-2.1-1.1-2.2-2.4c0-1.3,0.8-2.3,2.1-2.5c0.4-0.1,0.8,0,1.1,0
				C100,97.4,109.7,97.4,119.4,97.4z"/>
			<path class="st1" d="M136.1,128.5c4.1,0,8.2,0,12.3,0c1.9,0,2.9,0.9,3,2.4c0,1.6-1.1,2.6-2.9,2.6c-8.3,0-16.6,0-24.9,0
				c-1.7,0-2.9-1-2.9-2.6c0-1.5,1.2-2.5,2.9-2.5C127.8,128.5,132,128.5,136.1,128.5z"/>
			<path class="st1" d="M137.8,143c3.6,0,7.2,0,10.8,0c1.8,0,2.9,0.9,2.9,2.5c0,1.5-1.1,2.5-2.9,2.5c-7.2,0-14.5,0-21.7,0
				c-1.7,0-2.7-1-2.7-2.5s1-2.5,2.7-2.5C130.5,143,134.1,143,137.8,143z"/>
			<path class="st1" d="M85.8,163.8c3.3-3.1,6.5-6.2,9.7-9.3c1.7-1.7,3.5-3.4,5.2-5c1.3-1.2,2.8-1.3,3.8-0.2s0.9,2.6-0.4,3.8
				c-5.4,5.2-10.8,10.4-16.2,15.6c-1.4,1.3-2.5,1.4-3.8,0.3c-3.9-3.1-7.8-6.2-11.7-9.4c-0.9-0.7-1.3-1.6-1-2.7c0.3-1.1,1-1.8,2-1.8
				c0.8,0,1.7,0.4,2.4,0.9c3.1,2.4,6.1,4.8,9.2,7.3C85.2,163.4,85.4,163.5,85.8,163.8z"/>
			<path class="st1" d="M115.5,48.7c0-2.1,1.7-3.7,3.8-3.7c2.1,0,3.7,1.7,3.7,3.8s-1.7,3.8-3.8,3.7
				C117.1,52.6,115.4,50.9,115.5,48.7z"/>
		</g>
	</g>
</g>
</svg>
