<?xml version="1.0" encoding="utf-8"?>
<!-- Generator: Adobe Illustrator 25.2.3, SVG Export Plug-In . SVG Version: 6.00 Build 0)  -->
<svg version="1.1" id="Layer_1" xmlns="http://www.w3.org/2000/svg" xmlns:xlink="http://www.w3.org/1999/xlink" x="0px" y="0px"
	 viewBox="0 0 225 225" style="enable-background:new 0 0 225 225;" xml:space="preserve">
<style type="text/css">
	.st0{fill:#FFC107;}
	.st1{fill:#FFFFFF;}
	.st2{fill:none;stroke:#FFFFFF;stroke-width:5;stroke-linecap:round;stroke-linejoin:round;stroke-miterlimit:10;}
</style>
<g id="Layer_3">
	<rect x="-1" y="-1" class="st0" width="227" height="227"/>
</g>
<g id="Layer_1_1_">
	<g id="WK486f_1_">
		<g>
			<g>
				<path class="st1" d="M107.5,47L107.5,47L107.5,47 M112.1,47.8c1.7,0,3.4,0,5.2,0.1c-0.5,3.3-1.1,6.7-1.7,10
					c-0.3,1.5-0.5,2.9-0.8,4.4c-0.8,4.4,1.6,8.2,5.8,9.1c0.5,0.1,1.1,0.2,1.6,0.2c3.7,0,6.6-2.6,7.3-6.5c0.5-2.5,0.9-5,1.4-7.5
					c6.1,5.3,9.2,12.1,9.6,21c0.1,2.2,1.6,4,3.5,4.6h-41.4H81c2-0.7,3.4-2.5,3.4-4.7c0.1-7.2,2.4-13.2,7-18.5
					c0.8-0.9,1.6-1.7,2.5-2.5l1.1,6.4v0.2c0.1,0.4,0.2,0.9,0.3,1.4c0.9,3.7,3.8,6,7.3,6c0.6,0,1.1-0.1,1.7-0.2
					c4-0.9,6.5-4.7,5.7-8.9l-0.3-1.9c-0.7-4.1-1.4-8.4-2.2-12.6C109.1,47.8,110.6,47.8,112.1,47.8 M112.1,42.8c-1.8,0-3.6,0-5.3,0.2
					c-3.3,0.2-4.6,2.3-4.1,5.5c0.9,4.9,1.7,9.9,2.6,14.8c0.3,1.6-0.5,2.8-1.9,3.2c-0.2,0-0.4,0.1-0.6,0.1c-1.1,0-2.1-0.8-2.4-2.2
					c-0.1-0.4-0.2-0.9-0.3-1.3c-0.8-4.6-1.6-9.2-2.5-14c-3.9,2-7.1,4.5-9.9,7.6c-5.4,6.2-8.1,13.4-8.2,21.7c-0.5,0-0.9,0-1.2,0.1
					c-2.9,0.1-5,2.1-5,4.8c0,2.7,2.1,4.7,5,4.9c0.1,0,0.3,0,0.4,0c0.2,0,0.4,0,0.6,0c7.8,0,15.6,0,23.3,0c14.3,0,28.6,0,42.9,0l0,0
					c0.2,0,0.5,0,0.7,0c0.3,0,0.5,0,0.8,0c2.6-0.3,4.6-2.5,4.5-5c-0.1-2.6-2.1-4.5-4.8-4.7c-0.4,0-0.9-0.1-1.3-0.1
					c-0.6-13.1-6.6-22.8-18.1-29.3c-0.9,5.3-1.8,10.2-2.7,15.2c-0.3,1.6-1.2,2.4-2.4,2.4c-0.2,0-0.4,0-0.6-0.1
					c-1.5-0.3-2.2-1.5-1.9-3.3c0.9-5.4,1.9-10.7,2.7-16.1c0.1-0.7-0.2-1.8-0.8-2.3c-1-0.8-2.3-1.7-3.5-1.8
					C116.2,42.9,114.1,42.8,112.1,42.8L112.1,42.8z"/>
			</g>
			<path class="st2" d="M84.8,137c0.5-0.1,0.8,0,1.1-0.1c1.4-0.5,2.1,0,2.9,1.3c1.6,2.4,4.1,3.8,6.7,4.8c6.8,2.8,13.9,3.5,21.2,2.8
				c3.7-0.4,7.5-1.1,11.1-2.2c3.7-1.1,7.1-2.9,9.2-6.5c0.1-0.3,0.7-0.4,1.1-0.4c0.7,0,1.4,0.2,2.2,0.3c0,9.2,0,18.3,0,27.5
				c-18.5,0-36.9,0-55.4,0C84.8,155.4,84.8,146.3,84.8,137z"/>
			<path class="st1" d="M77,94.1c2,0,3.9,0,5.9,0c0,1.4,0,2.8,0,4.2c-0.1,2.4,0.5,4.6,1.9,6.4c0.6,0.8,1.6,1.2,2.6,1.5
				c2,5.2,4.6,10.2,8.3,14.6c3.4,4.1,7.5,7.4,12.8,8.6c6.4,1.4,11.7-1.1,16.4-5.2c5.1-4.6,8.5-10.3,10.9-16.7
				c0.2-0.5,0.3-0.9,0.5-1.5c1.6,0.4,2.5-0.6,3.1-1.8c1.7-3.1,2.1-6.5,1.5-10.1c1.9,0,3.8,0,5.9,0c-0.5,5.3-0.7,10.4-5.2,14.2
				c-1.1,0.9-1.5,2.7-2.1,4.1c-3.3,7.4-7.8,13.9-14.4,18.7c-9.1,6.6-19,6.2-27.8-1c-6.6-5.4-11.2-12.3-14.2-20.3
				c-0.3-0.7-1.1-1.3-1.6-2c-1.1-1.6-2.5-3.2-3.3-4.9C77.2,100.2,76.8,97.3,77,94.1z"/>
			<path class="st2" d="M62.9,180.7c-6.7-0.8-12.5-6.4-13.1-12.5c-0.1-1.2-0.1-2.5,0.2-3.6c1.9-7,4.6-13.7,9.6-19.2
				c2.6-2.9,5.7-5.1,9.5-6.3c0.3-0.1,0.5-0.1,1.1-0.2c0,0.6,0,1.2,0,1.7c0,7.8,0,15.6,0,23.4c0,1.1-0.3,1.8-1.3,2.4
				c-3.9,2.3-5.9,5.8-5.9,10.4C62.9,178.1,62.9,179.4,62.9,180.7z"/>
			<path class="st2" d="M155,138.9c3.1,0.7,5.6,2.2,7.9,4.2c5.7,4.9,8.8,11.4,11.1,18.3c0.9,2.7,1.7,5.4,1,8.2
				c-0.4,1.5-0.8,3.1-1.7,4.3c-2.7,3.8-6.8,5.5-11.3,7.2c0-1.6,0-2.9,0-4.2c0-4.7-2.2-8.2-6.1-10.6c-0.5-0.3-1-1.1-1-1.6
				c-0.1-8.3,0-16.5,0-24.8C154.9,139.5,155,139.3,155,138.9z"/>
			<path class="st1" d="M147.6,182.2c-3.4,0-6-2.6-6-6.1c0-3.3,2.7-5.9,6-5.9s6.1,2.8,6,6.1S150.9,182.2,147.6,182.2z"/>
			<path class="st1" d="M82.4,176.3c0,3.3-2.6,5.9-5.9,5.9c-3.4,0-6.1-2.7-6.1-6c0-3.2,2.8-6,6-6C79.7,170.2,82.4,172.9,82.4,176.3z
				"/>
		</g>
	</g>
</g>
</svg>
