<?xml version="1.0" encoding="utf-8"?>
<!-- Generator: Adobe Illustrator 25.2.3, SVG Export Plug-In . SVG Version: 6.00 Build 0)  -->
<svg version="1.1" id="Layer_1" focusable="false" xmlns="http://www.w3.org/2000/svg" xmlns:xlink="http://www.w3.org/1999/xlink"
	 x="0px" y="0px" viewBox="0 0 512 330.9" style="enable-background:new 0 0 512 330.9;" xml:space="preserve">
<style type="text/css">
	.st0{clip-path:url(#SVGID_2_);}
</style>
<path d="M99.4,47.3c-29.9,0-54.2,24.3-54.2,54.2c0,5,4,9,9,9s9-4,9-9c0-19.9,16.2-36.1,36.1-36.1c5,0,9-4,9-9S104.4,47.3,99.4,47.3z
	 M54.2,261.4c0,1.8,0.5,3.5,1.5,5l13.8,20.8c1.7,2.5,4.5,4,7.5,4h44.5c3,0,5.9-1.5,7.5-4l13.8-20.8c1-1.5,1.5-3.2,1.5-5l0-24.4H54.2
	L54.2,261.4z M99.4,2.1C41.6,2.1,0,49,0,101.5c0,25.1,9.3,47.9,24.6,65.4c9.4,10.7,24.1,33.2,29.6,52v0h27.1v-0.1
	c0-2.7-0.4-5.4-1.2-7.9C76.9,200.9,67.2,174.4,45,149c-11.6-13.2-17.8-30-17.9-47.5C27,59.9,60.8,29.2,99.4,29.2
	c39.9,0,72.3,32.4,72.3,72.3c0,17.5-6.3,34.4-17.9,47.5c-22.1,25.2-31.9,51.7-35.1,61.8c-0.8,2.6-1.3,5.3-1.3,8.1v0.1h27.1v0
	c5.5-18.8,20.2-41.3,29.6-52c15.3-17.5,24.6-40.3,24.6-65.4C198.8,46.6,154.3,2.1,99.4,2.1z"/>
<rect x="209.1" y="38" transform="matrix(0.8981 0.4398 -0.4398 0.8981 105.2589 -78.77)" width="27.1" height="299.6"/>
<g>
	<defs>
		
			<rect id="SVGID_1_" x="250.6" y="111.5" transform="matrix(0.8981 0.4398 -0.4398 0.8981 154.5138 -144.1929)" width="275.5" height="299.6"/>
	</defs>
	<clipPath id="SVGID_2_">
		<use xlink:href="#SVGID_1_"  style="overflow:visible;"/>
	</clipPath>
	<path class="st0" d="M411.6,211.5h-21.8c-8.9-7.6-20-13-32.4-15.8v-26.9l-18.1-1.9l-18.1,1.9v26.9c-12.4,2.8-23.5,8.2-32.4,15.8
		h-67c-5,0-9,4-9,9v54.2c0,5,4,9,9,9h52.4c11.6,21.3,36.3,36.1,65.1,36.1c28.8,0,53.4-14.8,65.1-36.1h7.2c10,0,18.1,8.1,18.1,18.1
		s8.1,18.1,18.1,18.1h36.1c10,0,18.1-8.1,18.1-18.1C501.9,252,461.5,211.5,411.6,211.5z M258.8,157.3l80.4-8.5l80.4,8.5
		c5.3,0.6,9.9-3.8,9.9-9.5v-17.1c0-5.6-4.6-10.1-9.9-9.5l-62.4,6.6v-15.7c0-5-4-9-9-9h-18.1c-5,0-9,4-9,9v15.7l-62.4-6.6
		c-5.3-0.6-9.9,3.9-9.9,9.5v17.1C248.9,153.4,253.5,157.8,258.8,157.3z"/>
</g>
</svg>
