<?xml version="1.0" encoding="utf-8"?>
<!-- Generator: Adobe Illustrator 25.2.3, SVG Export Plug-In . SVG Version: 6.00 Build 0)  -->
<svg version="1.1" id="Layer_1" xmlns="http://www.w3.org/2000/svg" xmlns:xlink="http://www.w3.org/1999/xlink" x="0px" y="0px"
	 viewBox="0 0 225 225" style="enable-background:new 0 0 225 225;" xml:space="preserve">
<style type="text/css">
	.st0{fill:#FFCC68;}
	.st1{fill:#FFFFFF;}
</style>
<g id="Layer_3">
	<rect x="-1" y="-1" class="st0" width="227" height="227"/>
</g>
<g id="Layer_5">
	<g>
		<g>
			<path class="st1" d="M177.2,146.5c-0.1-0.2-0.1-0.3-0.2-0.5c-1.4-3.8-5.1-6.4-9.2-6.4c-1.1,0-2.2,0.2-3.3,0.6
				c-2.2,0.8-5.2,1.9-8.7,3v-41.3l1.8,1.7c1,0.9,2.5,0.9,3.5,0l8.1-7.5c0.5-0.5,0.8-1.2,0.8-1.9c0-0.7-0.3-1.4-0.8-1.9l-47.4-44.1
				c-1-0.9-2.5-0.9-3.5,0l-47.4,44c-0.5,0.5-0.8,1.2-0.8,1.9c0,0.7,0.3,1.4,0.8,1.9l8.1,7.5c0.5,0.5,1.1,0.7,1.7,0.7
				s1.2-0.2,1.7-0.7l1.8-1.7v28.7c-2.9,2.7-6.8,3.4-12,3.4v-5.4c0-1.4-1.1-2.5-2.5-2.5H50c-1.4,0-2.5,1.1-2.5,2.5V175
				c0,1.4,1.1,2.5,2.5,2.5h19.8c1.4,0,2.5-1.1,2.5-2.5v-8.1h8.4c5.4,0,11,2.4,16.3,4.7c5.2,2.3,10.2,4.4,15,4.4h0.1
				c6.9-0.3,22.8-2.7,52.3-14.7c2.3-1,4.8-2,7.1-3l0,0C176.3,156.3,178.6,151.3,177.2,146.5z M67.2,136.5L67.2,136.5v27.9v8.1h-4.8
				v-26.4c0-1.4-1.1-2.5-2.5-2.5s-2.5,1.1-2.5,2.5v26.4h-4.8v-41.4h14.7C67.2,131.1,67.2,136.5,67.2,136.5z M80.8,98.2l-4.4-4.1
				l43.7-40.7l43.7,40.7l-4.4,4.1l-37.5-35c-1-0.9-2.5-0.9-3.5,0L80.8,98.2z M134.9,127.8C134.8,127.7,134.8,127.7,134.9,127.8
				l-32.4-3.3l0,0c-0.3,0-0.5-0.1-0.8-0.1c-0.1,0-0.1,0-0.2,0c-0.2,0-0.5,0-0.7,0h-0.1c-4-0.2-7.9,0.7-11.4,2.5v-4.6h45.4
				c1.4,0,2.5-1.1,2.5-2.5s-1.1-2.5-2.5-2.5H89.4v-20l30.7-28.6l30.7,28.6V145c-8.8,2.7-20.2,5.7-28.6,6h-0.1c-0.2,0-0.4,0-0.7,0
				c-0.1,0-0.1,0-0.2,0c-0.3,0-0.5,0-0.7,0c-3.3,0-4.6-2.5-5.1-4.7c3,0,5.5,0,7.5,0c2.5,0,4.2,0,5.2,0c0.1,0,0.1,0,0.2,0
				c0.1,0,0.1,0,0.2,0c0.3,0,0.5,0,0.6,0l0,0c4.2,0,8.1-2.1,10.4-5.4c0.2-0.2,0.3-0.5,0.4-0.7c0-0.1,0.1-0.2,0.1-0.3
				c0.9-1.7,1.4-3.7,1.4-5.7C141.5,132,140.6,128.5,134.9,127.8z M169.7,153.6c-1,0.4-2,0.8-2.9,1.2l-1.8-3.2
				c-0.7-1.2-2.2-1.6-3.5-1c-1.2,0.7-1.6,2.2-1,3.5l1.5,2.6c-28.4,11.5-43.5,13.8-50,14.1c-3.8,0-8.3-1.9-13-4
				c-5.5-2.4-11.8-5.1-18.3-5.1h-8.4V139c5.3-0.1,11.1-0.7,15.6-5c0.2-0.2,0.4-0.4,0.6-0.6c0.1-0.1,0.2-0.2,0.3-0.3
				c0.1-0.1,0.3-0.2,0.4-0.3s0.3-0.2,0.4-0.3s0.2-0.2,0.3-0.2c0.2-0.1,0.3-0.2,0.5-0.3c0.1,0,0.2-0.1,0.2-0.1
				c0.2-0.1,0.4-0.2,0.6-0.4l0.1-0.1c0.2-0.1,0.5-0.2,0.7-0.4c0,0,0,0,0.1,0c1.9-0.9,3.9-1.5,6-1.6l0,0c0.3,0,0.6,0,0.9-0.1h0.1
				c0.3,0,0.5,0,0.8,0c0.1,0,0.2,0,0.3,0c0.2,0,0.4,0,0.6,0c0.3,0,0.6,0.1,0.9,0.1c0,0,0,0,0.1,0l21.7,2.2v4.1
				c0,1.4,1.1,2.5,2.5,2.5s2.5-1.1,2.5-2.5v-3.6l5.6,0.6c0.4,0.1,0.7,0.1,1,0.2c1.1,0.3,1.1,0.6,1.1,1c0,1.2-0.3,2.4-0.9,3.4
				c-0.1,0.1-0.2,0.3-0.2,0.4c-0.2,0.3-0.4,0.5-0.6,0.7c-0.1,0.1-0.2,0.2-0.3,0.3c-1.3,1.3-3.2,2.1-5.3,2.1c-0.1,0-0.3,0-0.5,0
				c-0.1,0-0.1,0-0.2,0c-0.1,0-0.1,0-0.2,0c-1.2,0-3.5,0-7.1,0c-2.3,0-5.1,0-8.5,0l0,0c-0.7,0-1.3,0.3-1.8,0.8s-0.7,1.1-0.7,1.8
				c0.1,7.5,4.2,12.3,10.5,12.3c0.3,0,0.6,0,0.8,0c0.1,0,0.1,0,0.2,0c0.2,0,0.5,0,0.7,0h0.1c14.1-0.6,35.2-7.8,43.9-10.9
				c0.5-0.2,1-0.3,1.6-0.3c2,0,3.7,1.2,4.4,3.1c0,0.1,0.1,0.2,0.1,0.2C173,150.3,171.9,152.7,169.7,153.6z"/>
		</g>
	</g>
</g>
</svg>
