<?xml version="1.0" encoding="utf-8"?>
<!-- Generator: Adobe Illustrator 25.3.1, SVG Export Plug-In . SVG Version: 6.00 Build 0)  -->
<svg version="1.1" id="Layer_2" xmlns="http://www.w3.org/2000/svg" xmlns:xlink="http://www.w3.org/1999/xlink" x="0px" y="0px"
	 viewBox="0 0 595.3 564" style="enable-background:new 0 0 595.3 564;" xml:space="preserve">
<style type="text/css">
	.st0{fill:#FFFFFF;}
</style>
<g>
	<path class="st0" d="M297.7,200.5L481,457.3l2.7,3.8h4.6h13v24.6H327.9v-76.1v-9h-9h-42.5h-9v9v76.1H94V461h13h4.6l2.7-3.8
		L297.7,200.5 M297.7,185L107,452H85v42.6h191.4v-85.1h42.5v85.1h191.4V452h-22L297.7,185L297.7,185z"/>
	<polygon class="st0" points="85,69.4 85,112 85,401 85,409.6 91.1,401 297.7,112 504.2,401 510.3,409.6 510.3,401 510.3,112 
		510.3,69.4 	"/>
</g>
</svg>
